<svg id="svg" xmlns="http://www.w3.org/2000/svg" xmlns:xlink="http://www.w3.org/1999/xlink" width="400" height="406.5040650406504" viewBox="0, 0, 400,406.5040650406504"><g id="svgg"><path id="path0" d="M206.016 2.949 C 175.476 5.072,138.569 15.067,111.870 28.443 C 66.797 51.025,37.876 85.150,16.500 140.976 C 7.300 165.004,4.073 179.567,4.069 197.073 C 4.064 224.402,9.764 235.166,29.030 244.215 C 40.656 249.676,46.254 250.733,63.530 250.730 C 102.303 250.724,112.805 247.617,123.171 233.083 C 126.705 228.128,127.317 227.616,138.793 220.017 C 161.290 205.120,173.106 194.895,188.382 177.105 C 207.596 154.727,221.164 126.652,223.413 104.615 C 223.872 100.126,223.890 59.973,223.437 55.359 C 222.088 41.647,218.794 31.870,215.525 31.870 C 212.651 31.870,212.255 32.879,206.664 54.472 C 194.605 101.046,187.843 116.634,173.513 130.894 C 161.681 142.669,150.115 147.659,134.699 147.637 C 128.103 147.628,128.079 147.078,133.989 131.220 C 150.042 88.148,165.898 65.071,204.584 28.482 C 226.180 8.056,227.871 5.849,223.765 3.452 C 222.454 2.686,213.462 2.431,206.016 2.949 M142.343 50.778 C 140.123 54.419,136.580 60.179,134.470 63.577 C 108.730 105.047,96.883 144.782,105.053 162.242 C 109.263 171.239,112.364 172.502,136.260 174.948 C 148.409 176.192,149.268 176.300,149.268 176.587 C 149.268 177.579,131.778 189.911,117.322 199.112 C 106.953 205.711,103.592 208.537,100.019 213.659 C 95.256 220.486,91.827 222.482,83.017 223.555 C 57.231 226.698,36.082 220.100,32.114 207.676 C 26.769 190.943,45.172 135.906,66.106 106.016 C 80.075 86.071,98.685 68.707,118.211 57.399 C 128.070 51.690,145.584 43.361,146.276 44.054 C 146.333 44.111,144.564 47.137,142.343 50.778 M104.390 255.952 C 102.333 256.674,99.407 257.703,97.886 258.237 C 90.327 260.892,86.386 261.304,68.618 261.289 C 58.904 261.281,53.254 261.125,48.455 260.731 C 32.403 259.411,30.389 259.542,29.593 261.953 C 28.434 265.464,29.388 267.075,46.667 290.788 C 59.488 308.384,59.863 308.788,63.252 308.673 C 68.335 308.500,95.863 305.333,100.503 304.387 C 112.054 302.033,114.491 296.055,114.466 270.137 C 114.451 254.794,113.100 252.892,104.390 255.952 M119.512 307.644 C 102.821 315.495,94.406 316.553,72.898 313.504 C 61.626 311.906,59.512 312.116,59.512 314.831 C 59.512 321.067,85.073 350.258,119.455 383.287 C 131.585 394.939,146.146 403.738,150.929 402.304 C 154.139 401.343,155.810 395.369,155.894 384.553 C 155.944 378.193,156.162 378.733,150.721 371.707 C 139.956 357.807,136.134 349.862,127.804 324.065 C 121.909 305.808,122.198 306.381,119.512 307.644 " stroke="none" fill="#047b73" fill-rule="evenodd"></path><path id="path1" d="M247.911 2.741 C 246.079 3.556,245.201 5.624,244.382 11.057 C 242.623 22.723,243.132 26.121,247.423 31.339 C 248.438 32.573,250.127 34.624,251.176 35.897 C 259.599 46.116,266.644 61.373,272.218 81.463 C 275.697 94.003,277.153 97.561,278.807 97.561 C 279.656 97.561,285.021 95.010,289.594 92.432 C 297.663 87.882,307.392 87.723,331.420 91.747 C 336.782 92.644,337.581 92.709,338.412 92.313 C 342.612 90.308,335.527 80.068,311.671 53.659 C 279.380 17.912,255.920 -0.822,247.911 2.741 M223.884 82.602 C 223.884 88.057,223.929 90.289,223.983 87.561 C 224.037 84.833,224.037 80.370,223.983 77.642 C 223.929 74.915,223.884 77.146,223.884 82.602 M325.366 98.064 C 290.598 101.550,290.182 101.675,288.007 109.288 C 286.359 115.053,285.501 123.717,285.491 134.671 C 285.476 150.670,286.757 151.969,297.502 146.848 C 308.763 141.481,329.352 140.198,354.631 143.288 C 374.634 145.733,374.523 145.222,346.829 107.552 L 339.024 96.935 337.561 96.962 C 336.756 96.976,331.268 97.473,325.366 98.064 M314.309 153.037 C 313.772 153.110,311.943 153.329,310.244 153.522 C 292.424 155.549,277.513 164.048,275.131 173.535 C 274.467 176.179,272.547 177.707,263.742 182.598 C 220.801 206.449,186.347 249.815,177.229 291.487 C 171.785 316.368,174.618 366.411,181.845 373.011 C 185.844 376.665,187.994 372.844,191.726 355.447 C 201.580 309.509,211.997 285.632,228.514 271.121 C 239.604 261.378,247.378 258.144,261.886 257.237 C 268.444 256.827,270.453 257.062,270.301 258.219 C 269.217 266.476,253.168 305.239,245.665 317.724 C 235.223 335.099,203.223 370.416,182.223 387.743 C 173.943 394.576,171.781 398.538,174.607 401.702 L 175.556 402.764 179.659 402.879 C 188.403 403.124,207.604 401.032,222.637 398.196 C 297.906 383.996,347.441 346.361,376.066 281.626 C 385.608 260.048,393.015 237.495,395.184 223.415 C 396.318 216.051,395.551 192.021,393.984 185.830 C 389.466 167.981,373.131 157.127,345.755 153.785 C 340.610 153.157,317.453 152.606,314.309 153.037 M332.033 179.527 C 369.622 182.926,376.063 196.410,361.273 240.735 C 340.758 302.219,307.551 340.102,256.842 359.871 C 250.712 362.261,250.491 362.778,264.104 342.927 C 288.251 307.714,302.610 260.372,294.482 242.764 C 289.805 232.631,286.655 231.509,258.862 230.083 C 253.228 229.794,248.220 229.456,247.733 229.332 C 245.999 228.889,272.091 211.033,284.102 204.441 C 291.096 200.603,295.854 196.521,299.500 191.227 C 305.997 181.797,316.271 178.102,332.033 179.527 M118.699 307.805 C 118.252 308.060,118.033 308.270,118.211 308.270 C 118.390 308.270,118.902 308.060,119.350 307.805 C 119.797 307.549,120.016 307.340,119.837 307.340 C 119.659 307.340,119.146 307.549,118.699 307.805 M61.713 312.431 C 62.298 312.503,63.176 312.502,63.664 312.427 C 64.153 312.353,63.675 312.294,62.602 312.296 C 61.528 312.298,61.129 312.358,61.713 312.431 M94.309 358.476 C 94.309 358.532,94.785 359.007,95.366 359.533 L 96.423 360.488 95.468 359.431 C 94.577 358.446,94.309 358.225,94.309 358.476 M105.854 370.081 C 108.532 372.764,110.797 374.959,110.886 374.959 C 110.976 374.959,108.857 372.764,106.179 370.081 C 103.500 367.398,101.236 365.203,101.146 365.203 C 101.057 365.203,103.175 367.398,105.854 370.081 " stroke="none" fill="#040404" fill-rule="evenodd"></path></g></svg>